<?xml version='1.0' encoding='utf-8'?>
<svg xmlns="http://www.w3.org/2000/svg" id="b" width="160" height="160" viewBox="0 0 160 160">
  <g id="c">
    <g>
      <rect width="160" height="160" fill="none"/>
      <g>
        <path d="M118,47.067v8.867c0,2.798-2.268,5.067-5.067,5.067h-27.867c-2.798,0-5.067-2.268-5.067-5.067v-8.867c0-2.798-2.268-5.067-5.067-5.067h-8.867c-2.798,0-5.067,2.268-5.067,5.067v27.867c0,2.798-2.268,5.067-5.067,5.067h-8.867c-2.798,0-5.067,2.268-5.067,5.067v8.867c0,2.798,2.268,5.067,5.067,5.067h27.867c2.798,0,5.067,2.268,5.067,5.067v8.867c0,2.798,2.268,5.067,5.067,5.067h27.867c2.798,0,5.067-2.268,5.067-5.067v-8.867c0-2.798,2.268-5.067,5.067-5.067h8.867c2.798,0,5.067-2.268,5.067-5.067v-46.867c0-2.798-2.268-5.067-5.067-5.067h-8.867c-2.798,0-5.067,2.268-5.067,5.067Z" fill="#432261"/>
        <rect x="23" y="61" width="19" height="19" rx="5.067" ry="5.067" fill="#432261"/>
      </g>
    </g>
  </g>
</svg>